<svg width="64" height="64" viewBox="0 0 64 64" xmlns="http://www.w3.org/2000/svg">
  <!-- Cricket ball background -->
  <circle cx="32" cy="32" r="30" fill="#8B4513" stroke="#654321" stroke-width="2"/>
  
  <!-- Cricket ball seam lines -->
  <path d="M 15 25 Q 32 20 49 25" stroke="#654321" stroke-width="2" fill="none"/>
  <path d="M 15 39 Q 32 44 49 39" stroke="#654321" stroke-width="2" fill="none"/>
  
  <!-- Stitching marks -->
  <line x1="20" y1="27" x2="22" y2="25" stroke="#654321" stroke-width="1"/>
  <line x1="25" y1="26" x2="27" y2="24" stroke="#654321" stroke-width="1"/>
  <line x1="30" y1="25" x2="32" y2="23" stroke="#654321" stroke-width="1"/>
  <line x1="35" y1="25" x2="37" y2="23" stroke="#654321" stroke-width="1"/>
  <line x1="40" y1="26" x2="42" y2="24" stroke="#654321" stroke-width="1"/>
  <line x1="45" y1="27" x2="47" y2="25" stroke="#654321" stroke-width="1"/>
  
  <line x1="20" y1="37" x2="22" y2="39" stroke="#654321" stroke-width="1"/>
  <line x1="25" y1="38" x2="27" y2="40" stroke="#654321" stroke-width="1"/>
  <line x1="30" y1="39" x2="32" y2="41" stroke="#654321" stroke-width="1"/>
  <line x1="35" y1="39" x2="37" y2="41" stroke="#654321" stroke-width="1"/>
  <line x1="40" y1="38" x2="42" y2="40" stroke="#654321" stroke-width="1"/>
  <line x1="45" y1="37" x2="47" y2="39" stroke="#654321" stroke-width="1"/>
</svg>
